<?xml version="1.0" encoding="UTF-8"?>
<svg id="a" data-name="Layer 1" xmlns="http://www.w3.org/2000/svg" viewBox="0 0 1128.24 573.67">
  <defs>
    <style>
      .b {
        stroke-linecap: round;
      }

      .b, .c {
        fill: none;
        stroke: #61587d;
      }

      .d {
        opacity: .14;
      }
    </style>
  </defs>
  <path d="m167.43,60.18c16.16,0,30.82,2.03,43.98,6.09,13.16,4.06,23.72,10.88,31.69,20.46,7.97,9.58,11.95,22.71,11.95,39.39,0,11.05-2.42,21.08-7.27,30.09-4.85,9.02-11.37,16.63-19.57,22.82-8.2,6.2-17.32,10.99-27.36,14.37-10.04,3.38-20.38,5.07-30.99,5.07-8.78,0-16.05-.68-21.82-2.03-5.77-1.35-8.66-3.04-8.66-5.07,0-2.25,1.67-4.62,5.02-7.1,3.34-2.48,6.17-3.72,8.48-3.72s4.96.45,7.97,1.35c4.16.9,7.85,1.58,11.08,2.03,3.23.45,7.27.68,12.12.68,16.39,0,29.49-4.68,39.31-14.03,9.81-9.35,14.72-21.58,14.72-36.69,0-21.41-6.99-36.63-20.95-45.64-13.97-9.01-32.5-13.52-55.58-13.52-16.16,0-29.38,1.69-39.65,5.07-10.28,3.38-18.07,6.31-23.38,8.79-3.7,2.03-6.35,3.04-7.97,3.04s-2.42-.56-2.42-1.69c0-2.7,2.19-5.75,6.58-9.13,4.38-3.38,10.33-6.65,17.83-9.81,7.5-3.15,15.98-5.75,25.45-7.78,9.46-2.03,19.27-3.04,29.44-3.04Zm-51.95,69.65c2.08-16,4.79-26.48,8.14-31.44,3.34-4.96,6.87-7.44,10.56-7.44,1.39,0,2.08.79,2.08,2.37,0,2.26-.69,6.42-2.08,12.51-.69,3.16-1.27,6.76-1.73,10.82-.47,4.06-.92,8.23-1.39,12.51-1.62,19.16-2.66,37.02-3.12,53.59-.47,16.57-.69,32.52-.69,47.84v7.44c0,2.48-.12,4.96-.35,7.44-.47,6.31-2.14,11.04-5.02,14.2-2.89,3.15-5.49,4.73-7.79,4.73s-3.58-1.69-3.81-5.07c-.23-5.19-.41-10.2-.52-15.05-.12-4.84-.17-9.64-.17-14.37,0-16.68.4-33.08,1.21-49.19.81-16.11,2.36-33.08,4.68-50.88Z"/>
  <path d="m507.84,265.08c-22.16,0-38.85-9.47-50.04-28.4-11.2-18.93-16.8-45.42-16.8-79.46,0-2.48.05-5.97.17-10.48.11-4.51.29-8.67.52-12.51-2.77,7.89-6.35,17.07-10.73,27.56-4.39,10.48-10.28,23.16-17.66,38.04-.92,1.81-2.2,2.7-3.81,2.7-2.08,0-3.12-.9-3.12-2.7,0-.9.35-2.03,1.04-3.38,5.54-10.82,10.79-21.92,15.76-33.3,4.96-11.38,9.46-22.03,13.51-31.95,4.04-9.92,7.33-18.14,9.87-24.68-12.93-2.03-25.17-4.28-36.71-6.76-9.7-2.25-15.64-3.94-17.83-5.07-2.19-1.13-3.29-2.48-3.29-4.06,0-1.8,1.21-3.77,3.64-5.92,2.42-2.14,5.37-3.21,8.83-3.21,2.31,0,7.15,1.01,14.55,3.04,4.16,1.13,9.12,2.37,14.89,3.72,5.77,1.35,12.12,2.7,19.05,4.06,2.77-12.39,5.37-22.03,7.79-28.91,2.42-6.87,5.13-11.72,8.14-14.54,3-2.82,6.69-4.23,11.08-4.23,2.54,0,3.81.79,3.81,2.37,0,1.35-1.27,4.73-3.81,10.14-1.85,4.06-3.93,9.19-6.23,15.38-2.31,6.2-4.62,13.58-6.93,22.15,8.31,1.13,17.26,2.09,26.84,2.87,9.58.79,19.68,1.18,30.3,1.18,7.15,0,13.51-.22,19.05-.68,5.54-.45,10.39-1.13,14.55-2.03,2.31-.45,4.33-.79,6.06-1.01,1.73-.22,3.17-.34,4.33-.34,3,0,4.5.9,4.5,2.7,0,1.58-1.39,3.61-4.16,6.09-2.77,2.48-7.56,4.68-14.37,6.59-6.81,1.92-16.34,2.87-28.57,2.87-8.78,0-18.41-.39-28.92-1.18-10.51-.79-21.3-1.86-32.38-3.21-1.16,6.76-2.14,14.15-2.94,22.15-.81,8-1.21,16.63-1.21,25.87,0,32.69,5.54,56.58,16.62,71.68,11.08,15.1,25.05,22.65,41.9,22.65,17.78,0,32.26-5.12,43.46-15.38,11.2-10.25,20.72-23.27,28.57-39.05,1.39-2.48,3-3.72,4.85-3.72,1.61,0,2.42.79,2.42,2.37,0,1.35-.47,2.93-1.39,4.73-10.62,21.19-22.46,37.36-35.5,48.52-13.05,11.16-29.61,16.74-49.7,16.74Z"/>
  <path d="m637.71,279.61c-17.55,0-31.81-4.4-42.77-13.19-10.96-8.79-16.45-21.52-16.45-38.21,0-3.6.69-8.4,2.08-14.37,1.39-5.97,3.58-11.78,6.58-17.41,5.08-10.14,11.77-19.1,20.09-26.88,8.31-7.78,17.54-13.86,27.7-18.26,10.16-4.4,20.43-6.59,30.82-6.59,8.31,0,15.18,1.13,20.6,3.38,5.42,2.26,9.41,4.9,11.95,7.95,2.54,3.04,3.81,5.58,3.81,7.61,0,2.26-1.27,4.62-3.81,7.1-2.54,2.48-5.08,3.72-7.62,3.72-1.39,0-2.72-.45-3.98-1.35-1.27-.9-2.6-1.91-3.98-3.04-2.54-2.48-5.95-4.95-10.22-7.44-4.27-2.48-10.56-3.72-18.87-3.72-12.47,0-23.2,3.16-32.21,9.47-9,6.31-15.88,14.32-20.61,24.01-4.73,9.69-7.1,19.73-7.1,30.09,0,13.75,4.38,24.51,13.16,32.29,8.77,7.78,21.12,11.66,37.06,11.66,17.54,0,32.73-3.55,45.54-10.65,12.81-7.1,23.66-16,32.55-26.71,8.88-10.7,16.1-21.58,21.64-32.63,1.39-2.48,3-3.72,4.85-3.72,1.61,0,2.43.79,2.43,2.37,0,1.35-.47,2.93-1.39,4.73-7.16,14.2-15.76,27.39-25.8,39.56-10.04,12.17-22.11,21.92-36.19,29.25-14.09,7.32-30.71,10.99-49.87,10.99Z"/>
  <path d="m920.64,244.11c17.54,0,34.4-15.89,50.56-47.67,1.38-2.48,3-3.72,4.85-3.72,1.61,0,2.42.79,2.42,2.37,0,1.35-.46,2.93-1.39,4.73-10.62,21.19-21.47,36.46-32.55,45.81-11.08,9.35-21.94,14.03-32.55,14.03-7.85,0-15.12-2.82-21.82-8.45-6.7-5.63-12.81-12.79-18.36-21.47-5.54-8.67-10.85-17.3-15.93-25.87-5.77-10.14-11.37-19.04-16.79-26.71-5.43-7.66-11.03-11.5-16.8-11.5s-9.64,2.42-12.29,7.27c-2.66,4.85-4.5,11.22-5.54,19.1-1.04,7.89-1.9,16.23-2.6,25.02-.46,8.79-1.27,17.3-2.42,25.53-1.16,8.23-3.18,14.99-6.06,20.29-2.89,5.29-7.45,7.95-13.68,7.95-7.16,0-13.16-3.33-18.01-9.97-4.85-6.65-8.72-15.27-11.6-25.87-2.89-10.59-5.08-21.81-6.58-33.64-1.5-11.83-2.48-23.1-2.94-33.81-.46-10.7-.69-19.32-.69-25.87,0-22.31,2.08-42.21,6.23-59.68,4.16-17.47,9.58-32.34,16.28-44.63,6.69-12.28,13.85-21.58,21.47-27.89,7.62-6.31,15-9.47,22.16-9.47,15.24,0,22.86,11.16,22.86,33.47,0,10.14-2.2,22.04-6.58,35.67-4.39,13.64-10.04,27.95-16.97,42.94-6.93,14.99-14.32,29.64-22.17,43.95-7.85,14.32-15.12,27.45-21.82,39.39,2.3,16.68,5.42,30.32,9.35,40.91,3.92,10.6,8.31,15.89,13.16,15.89,3.69,0,6.11-3.32,7.27-9.97,1.15-6.65,2.08-14.48,2.77-23.5.46-7.44,1.15-15.05,2.08-22.82.92-7.78,2.54-14.99,4.85-21.64,2.3-6.65,5.59-12.06,9.87-16.23,4.27-4.17,9.98-6.25,17.14-6.25,6.46,0,12.29,2.26,17.49,6.76,5.19,4.51,10.16,10.26,14.89,17.24,4.73,6.99,9.29,14.32,13.68,21.98,4.62,7.67,9.23,15.05,13.85,22.15,4.62,7.1,9.64,12.91,15.07,17.41,5.42,4.51,11.37,6.76,17.83,6.76Zm-163.81-115.63c0,10.14.29,20.01.87,29.58.57,9.58,1.33,18.65,2.25,27.22,5.54-10.36,11.43-21.81,17.66-34.32,6.23-12.51,12.06-25.41,17.49-38.71,5.42-13.3,9.81-26.37,13.16-39.22,3.34-12.85,5.02-24.79,5.02-35.84,0-7.21-1.16-12.85-3.46-16.91-2.31-4.06-5.89-6.09-10.74-6.09-6.23,0-12.59,3.89-19.05,11.66-6.47,7.78-11.95,20.01-16.45,36.68-4.5,16.68-6.75,38.66-6.75,65.93Z"/>
  <path d="m486.23,557.78c-8.78,0-15.76-2.99-20.95-8.96-5.19-5.97-9.3-13.52-12.29-22.65-3-9.13-5.54-18.31-7.62-27.56-2.31-10.82-5.08-20.34-8.31-28.57-3.24-8.23-7.97-12.34-14.2-12.34-3.7,0-6.99,1.86-9.87,5.58-2.89,3.72-5.43,8.45-7.62,14.2-2.2,5.75-4.33,11.78-6.41,18.09-3.7,11.72-7.27,21.36-10.74,28.91-3.46,7.55-8.43,11.33-14.89,11.33-4.85,0-8.89-2.14-12.12-6.42-3.24-4.28-5.89-9.75-7.97-16.4-2.08-6.65-3.93-13.47-5.54-20.46-2.31-9.69-4.91-18.31-7.79-25.86-2.89-7.55-6.99-11.33-12.29-11.33-3.24,0-5.95,1.92-8.14,5.75-2.2,3.83-3.98,8.91-5.37,15.21-1.39,6.31-2.77,13.07-4.16,20.29-1.39,8.79-3.12,17.41-5.19,25.87-2.08,8.45-4.91,15.5-8.49,21.13-3.58,5.63-8.48,8.45-14.72,8.45-4.62,0-8.49-2.48-11.6-7.44s-5.66-11.38-7.62-19.27c-1.96-7.89-3.46-16.17-4.5-24.85-1.04-8.68-1.73-16.79-2.08-24.34-.35-7.55-.52-13.47-.52-17.75,0-7.21,1.67-13.19,5.02-17.92,3.34-4.73,6.63-7.1,9.87-7.1,1.15,0,1.9.57,2.25,1.69.35,1.13.52,3.38.52,6.76,0,1.58.05,5.7.17,12.34.11,6.65.4,14.37.87,23.16.46,8.79,1.15,17.41,2.08,25.87.92,8.45,2.31,15.5,4.16,21.13,1.84,5.64,4.16,8.45,6.93,8.45,3.92,0,6.81-3.43,8.66-10.31,1.85-6.87,3.58-14.93,5.19-24.17,1.61-8.79,3.52-17.63,5.71-26.54,2.19-8.9,5.37-16.4,9.52-22.48,4.16-6.09,9.92-9.13,17.32-9.13,6.46,0,11.6,2.48,15.41,7.44,3.81,4.96,6.93,11.16,9.35,18.6,2.42,7.44,4.44,14.88,6.06,22.31,1.84,8.34,3.86,15.55,6.06,21.64,2.19,6.09,5.13,9.13,8.83,9.13,2.54,0,4.68-2.31,6.41-6.93,1.73-4.62,3.52-10.2,5.37-16.74,2.31-7.66,5.02-15.55,8.14-23.67,3.12-8.11,7.15-15.05,12.12-20.79,4.96-5.75,11.37-8.62,19.22-8.62,6.46,0,11.66,2.42,15.58,7.27,3.92,4.85,7.1,10.99,9.52,18.43,2.42,7.44,4.68,15.33,6.75,23.67,2.08,8.34,4.38,16.34,6.93,24,2.54,7.67,5.83,13.98,9.87,18.93,4.04,4.96,9.4,7.44,16.1,7.44,8.77,0,18.53-4.56,29.26-13.69,10.73-9.13,20.03-21.58,27.88-37.36,1.39-2.48,3-3.72,4.85-3.72,1.61,0,2.42.79,2.42,2.37,0,1.35-.47,2.93-1.39,4.73-10.62,21.19-22.28,37.02-34.98,47.5-12.7,10.48-25.05,15.72-37.06,15.72Z"/>
  <path d="m544.41,522.61c0-5.41.75-10.76,2.25-16.06,1.5-5.29,3.41-10.42,5.71-15.38,5.31-10.59,12.47-20.12,21.47-28.57,9-8.45,18.99-15.16,29.96-20.12,10.96-4.95,21.76-7.44,32.38-7.44,7.62,0,14.31,1.13,20.09,3.38,5.77,2.26,10.27,4.85,13.51,7.78,3.23,2.93,4.85,5.41,4.85,7.44,0,2.48-1.27,4.96-3.81,7.44-2.54,2.48-5.08,3.72-7.62,3.72s-5.43-1.8-8.66-5.41c-2.77-2.93-6.23-5.69-10.39-8.28-4.16-2.59-9.93-3.89-17.32-3.89-7.85,0-15.76,1.81-23.72,5.41-7.97,3.61-15.12,8.51-21.47,14.71-6.35,6.2-11.49,13.47-15.41,21.81-3.93,8.34-5.89,17.24-5.89,26.71,0,8.11,1.9,14.37,5.71,18.76,3.81,4.4,9.06,6.59,15.76,6.59,7.39,0,14.2-1.8,20.43-5.41,6.23-3.6,12-8.23,17.32-13.86,5.31-5.63,10.27-11.27,14.89-16.91,5.31-6.54,10.56-12.23,15.76-17.08,5.19-4.84,10.33-7.27,15.41-7.27,6.69,0,11.78,2.7,15.24,8.11,3.46,5.41,6.69,11.5,9.7,18.26,2.31,5.19,4.85,10.2,7.62,15.05,2.77,4.85,6.23,8.85,10.39,12,4.16,3.16,9.35,4.73,15.58,4.73,18.01,0,34.86-15.89,50.56-47.67,1.39-2.48,3-3.72,4.85-3.72,1.61,0,2.42.79,2.42,2.37,0,1.35-.47,2.93-1.39,4.73-10.62,21.19-21.24,36.46-31.86,45.81-10.62,9.35-21.7,14.03-33.25,14.03-7.85,0-14.37-1.92-19.57-5.75-5.2-3.83-9.41-8.67-12.64-14.54-3.24-5.86-6.12-11.72-8.66-17.58-2.31-5.86-4.68-10.82-7.1-14.88-2.42-4.06-5.49-6.09-9.18-6.09-3,0-6.29,1.75-9.87,5.24-3.58,3.5-7.33,7.83-11.26,13.02-4.62,6.09-9.93,12.29-15.93,18.6-6.01,6.31-12.87,11.61-20.61,15.89-7.74,4.28-16.34,6.42-25.8,6.42-8.08,0-15.18-2.42-21.3-7.27-6.11-4.84-9.18-13.13-9.18-24.85Z"/>
  <path d="m875.13,559.8c-22.16,0-38.85-9.47-50.04-28.4-11.2-18.93-16.8-45.42-16.8-79.45,0-2.48.05-5.97.17-10.48.11-4.51.29-8.68.52-12.51-2.77,7.89-6.35,17.08-10.73,27.56-4.39,10.48-10.28,23.16-17.66,38.04-.92,1.81-2.2,2.7-3.81,2.7-2.08,0-3.12-.9-3.12-2.7,0-.9.35-2.03,1.04-3.38,5.54-10.82,10.79-21.92,15.76-33.3,4.96-11.38,9.46-22.03,13.51-31.95,4.04-9.92,7.33-18.14,9.87-24.68-12.93-2.03-25.17-4.28-36.71-6.76-9.7-2.25-15.64-3.94-17.83-5.07-2.19-1.13-3.29-2.48-3.29-4.06,0-1.8,1.21-3.77,3.64-5.92,2.42-2.14,5.37-3.21,8.83-3.21,2.31,0,7.15,1.01,14.55,3.04,4.16,1.13,9.12,2.37,14.89,3.72,5.77,1.35,12.12,2.7,19.05,4.06,2.77-12.39,5.37-22.03,7.79-28.91,2.42-6.87,5.13-11.72,8.14-14.54,3-2.82,6.69-4.23,11.08-4.23,2.54,0,3.81.79,3.81,2.37,0,1.35-1.27,4.73-3.81,10.14-1.85,4.06-3.93,9.19-6.23,15.38-2.31,6.2-4.62,13.58-6.93,22.15,8.31,1.13,17.26,2.09,26.84,2.87,9.58.79,19.68,1.18,30.3,1.18,7.15,0,13.5-.22,19.05-.68,5.54-.45,10.39-1.12,14.55-2.03,2.31-.45,4.33-.79,6.06-1.01,1.73-.22,3.17-.34,4.33-.34,3,0,4.5.9,4.5,2.7,0,1.58-1.39,3.61-4.16,6.09-2.77,2.48-7.56,4.68-14.37,6.59-6.81,1.92-16.34,2.87-28.57,2.87-8.78,0-18.41-.39-28.92-1.18-10.51-.79-21.3-1.86-32.38-3.21-1.16,6.76-2.14,14.15-2.94,22.15-.81,8-1.21,16.63-1.21,25.86,0,32.69,5.54,56.58,16.62,71.68,11.08,15.1,25.05,22.65,41.9,22.65,17.78,0,32.26-5.12,43.46-15.38,11.2-10.25,20.72-23.27,28.57-39.05,1.39-2.48,3-3.72,4.85-3.72,1.61,0,2.42.79,2.42,2.37,0,1.35-.46,2.93-1.39,4.73-10.62,21.19-22.46,37.36-35.5,48.52-13.05,11.16-29.61,16.74-49.7,16.74Z"/>
  <path d="m1010.2,573.67c-19.39,0-34.86-4.4-46.41-13.19-11.54-8.79-17.32-21.64-17.32-38.54,0-5.18.69-10.53,2.08-16.06,1.39-5.52,3.35-10.42,5.89-14.71,10.16-17.13,21.52-29.75,34.11-37.87,12.58-8.11,26.03-12.17,40.35-12.17,11.54,0,20.31,2.48,26.32,7.44,6,4.96,9,11.27,9,18.93,0,8.11-2.94,15.21-8.83,21.3-5.89,6.09-13.68,10.77-23.37,14.03-9.7,3.27-20.32,4.9-31.86,4.9-8.54,0-15.59-1.02-21.13-3.04-5.54-2.03-8.31-4.28-8.31-6.76,0-2.03.98-3.89,2.94-5.58,1.96-1.69,3.86-2.54,5.71-2.54,2.54,0,5.31.9,8.31,2.7,2.54,1.58,5.48,2.82,8.83,3.72,3.34.9,8.02,1.35,14.03,1.35,10.85,0,19.62-2.31,26.32-6.93,6.69-4.62,10.04-11.1,10.04-19.44,0-5.63-2.14-10.25-6.41-13.86-4.28-3.6-10.1-5.41-17.49-5.41-11.31,0-21.64,2.87-30.99,8.62-9.35,5.75-16.8,13.3-22.34,22.65-5.54,9.36-8.31,19.56-8.31,30.6,0,14.88,4.56,26.37,13.68,34.49,9.12,8.11,21.76,12.17,37.92,12.17,24.47,0,44.27-6.2,59.39-18.6,15.12-12.39,27.99-29.3,38.61-50.72,1.39-2.48,3-3.72,4.85-3.72,1.61,0,2.43.79,2.43,2.37,0,1.35-.47,2.93-1.39,4.73-7.85,15.78-16.62,29.58-26.32,41.42-9.7,11.83-21.01,21.07-33.94,27.73-12.93,6.65-28.4,9.97-46.41,9.97Z"/>
  <g>
    <g>
      <line class="c" x1="23.53" y1="323.96" x2=".21" y2="335.03"/>
      <line class="c" x1="25.12" y1="327.31" x2="1.8" y2="338.38"/>
      <line class="c" x1="4.98" y1="345.07" x2="28.3" y2="334"/>
      <line class="c" x1="26.71" y1="330.66" x2="3.39" y2="341.73"/>
      <line class="c" x1="6.57" y1="348.42" x2="29.89" y2="337.35"/>
    </g>
    <g>
      <line class="c" x1="46.85" y1="312.89" x2="23.53" y2="323.96"/>
      <line class="c" x1="48.44" y1="316.24" x2="25.12" y2="327.31"/>
      <line class="c" x1="28.3" y1="334" x2="51.62" y2="322.93"/>
      <line class="c" x1="50.03" y1="319.58" x2="26.71" y2="330.66"/>
      <line class="c" x1="29.89" y1="337.35" x2="53.21" y2="326.28"/>
    </g>
    <g>
      <line class="c" x1="70.17" y1="301.82" x2="46.85" y2="312.89"/>
      <line class="c" x1="71.76" y1="305.16" x2="48.44" y2="316.24"/>
      <line class="c" x1="51.62" y1="322.93" x2="74.94" y2="311.86"/>
      <line class="c" x1="73.35" y1="308.51" x2="50.03" y2="319.58"/>
      <line class="c" x1="53.21" y1="326.28" x2="76.53" y2="315.21"/>
    </g>
    <g>
      <line class="c" x1="93.49" y1="290.74" x2="70.17" y2="301.82"/>
      <line class="c" x1="95.08" y1="294.09" x2="71.76" y2="305.16"/>
      <line class="c" x1="74.94" y1="311.86" x2="98.26" y2="300.79"/>
      <line class="c" x1="96.67" y1="297.44" x2="73.35" y2="308.51"/>
      <line class="c" x1="76.53" y1="315.21" x2="99.84" y2="304.13"/>
    </g>
    <g>
      <path class="c" d="m123.13,279.86c-2.13,0-4.27.28-6.36.78-.52.13-1.04.26-1.56.41l-1.18.37c-.75.25-1.49.51-2.16.78-1.36.53-2.59,1.08-3.71,1.59l-3.01,1.43-11.66,5.54"/>
      <path class="c" d="m123.01,283.56c-1.82.01-3.65.26-5.43.69l-1.33.35-1.06.33c-.68.23-1.35.46-1.97.71-1.26.49-2.42,1-3.49,1.5l-2.99,1.41-11.66,5.54"/>
      <path class="c" d="m98.26,300.79l11.66-5.54c1.94-.91,3.88-1.89,5.98-2.7,2.04-.8,4.46-1.51,6.86-1.58"/>
      <path class="c" d="m122.88,287.27c-1.51.02-3.02.24-4.5.6l-1.1.29-.94.29c-.61.2-1.21.42-1.78.64-1.15.45-2.24.93-3.27,1.41l-2.96,1.4-11.66,5.54"/>
      <path class="c" d="m99.85,304.13l11.66-5.54c3.89-1.85,7.69-3.78,11.13-3.89"/>
    </g>
    <g>
      <path class="c" d="m150.53,305.72l-1.37-3.33-1.56-3.28c-.54-1.11-1-2.14-1.61-3.31-.62-1.18-1.32-2.44-2.18-3.77-.2-.33-.45-.67-.68-1.01l-.18-.27-.23-.32-.48-.65c-.65-.85-1.35-1.68-2.08-2.45-1.47-1.56-3.12-2.93-4.92-4.06-3.6-2.26-7.84-3.43-12.1-3.4"/>
      <path class="c" d="m147.1,307.12l-1.33-3.23-1.51-3.17c-.52-1.07-.97-2.09-1.55-3.19-.58-1.11-1.24-2.28-2.02-3.48-.19-.3-.4-.61-.61-.91-.19-.29-.51-.72-.77-1.07-.56-.73-1.15-1.43-1.77-2.1-1.25-1.34-2.65-2.52-4.19-3.49-3.07-1.95-6.71-2.94-10.35-2.9"/>
      <path class="c" d="m122.76,290.97c2.4-.09,4.84.53,6.85,1.88,2,1.31,3.63,3.27,4.87,5.2,1.25,1.91,2.19,3.9,3.11,5.87l1.41,2.96,1.24,3.03"/>
      <path class="c" d="m143.67,308.51l-1.28-3.13-1.46-3.07c-.5-1.03-.95-2.03-1.49-3.07-.55-1.05-1.15-2.12-1.85-3.2-.35-.53-.71-1.07-1.19-1.71-.46-.61-.95-1.19-1.46-1.75-1.03-1.11-2.18-2.11-3.45-2.93-2.54-1.65-5.57-2.46-8.6-2.39"/>
      <path class="c" d="m122.64,294.71c1.78-.09,3.6.37,5.07,1.38.74.5,1.41,1.1,2,1.77.61.68,1.1,1.34,1.65,2.2.54.83,1.03,1.71,1.51,2.63.48.92.91,1.89,1.37,2.84l1.36,2.85,1.2,2.93"/>
    </g>
    <g>
      <path class="c" d="m158.38,332.87c-1.74-9.07-4.22-18.23-7.84-27.14"/>
      <path class="c" d="m154.74,333.56c-1.71-8.89-4.13-17.81-7.64-26.44"/>
      <path class="c" d="m140.23,309.91c3.29,8.09,5.59,16.53,7.22,25.05"/>
      <path class="c" d="m151.1,334.26c-1.67-8.71-4.03-17.39-7.43-25.75"/>
      <path class="c" d="m136.8,311.3c3.18,7.81,5.42,16.01,7.02,24.35"/>
    </g>
    <g>
      <path class="c" d="m161.87,359.81c-.72-8.85-1.75-17.86-3.49-26.94"/>
      <path class="c" d="m158.17,360.11c-.71-8.77-1.73-17.65-3.44-26.54"/>
      <path class="c" d="m147.46,334.96c1.64,8.53,2.63,17.14,3.33,25.75"/>
      <path class="c" d="m154.48,360.41c-.71-8.69-1.71-17.43-3.38-26.15"/>
      <path class="c" d="m143.82,335.66c1.6,8.34,2.58,16.83,3.28,25.36"/>
    </g>
    <g>
      <path class="c" d="m163.49,385.9c-.48-8.54-.9-17.24-1.62-26.09"/>
      <path class="c" d="m159.79,386.1c-.48-8.55-.9-17.22-1.61-25.99"/>
      <path class="c" d="m150.79,360.71c.7,8.61,1.12,17.22,1.6,25.8"/>
      <path class="c" d="m156.09,386.31c-.48-8.57-.9-17.21-1.61-25.9"/>
      <path class="c" d="m147.09,361.01c.69,8.53,1.11,17.11,1.59,25.71"/>
    </g>
    <g>
      <line class="c" x1="163.92" y1="393.34" x2="163.49" y2="385.9"/>
      <path class="c" d="m162.7,397.54c-.62.01-1.28-.2-1.7-.67-.44-.47-.59-1.12-.66-1.73-.04-.31-.05-.63-.07-.94l-.11-1.7-.37-6.39"/>
      <path class="c" d="m152.39,386.51l.37,6.43.19,2.96c.06.94.11,1.89.22,2.82.21,1.85.67,3.8,1.98,5.2,1.27,1.43,3.23,2.07,5.1,2.02"/>
      <path class="c" d="m161.48,401.75c-1.25.03-2.56-.39-3.4-1.35-.88-.93-1.18-2.23-1.32-3.47-.07-.63-.11-1.25-.15-1.88l-.15-2.33-.37-6.41"/>
      <path class="c" d="m148.69,386.72l.38,6.45.23,3.59c.08,1.26.19,2.5.38,3.72.38,2.41,1.15,4.83,2.88,6.58,1.68,1.81,4.16,2.69,6.58,2.75"/>
    </g>
    <g>
      <path class="c" d="m175.63,386.12l-2.47,1.67c-.82.56-1.64,1.13-2.51,1.6l-5.12,3-1.61.95"/>
      <path class="c" d="m177.7,389.19l-2.53,1.71c-.84.58-1.68,1.15-2.57,1.64l-5.25,3.08-1.31.77-.43.26-.21.11c-.28.14-.57.28-.86.39-.59.23-1.2.39-1.84.4"/>
      <path class="c" d="m160.25,405.95c1.89-.02,3.75-.51,5.51-1.19.88-.34,1.74-.73,2.58-1.17.8-.4,1.73-1,2.65-1.52l5.51-3.23c.93-.52,1.81-1.12,2.69-1.72l2.65-1.79"/>
      <path class="c" d="m179.77,392.26l-2.59,1.75c-.86.59-1.72,1.18-2.63,1.68l-5.38,3.16-1.35.79-.54.32c-.13.08-.28.15-.42.22-.56.29-1.13.55-1.72.78-1.17.45-2.41.78-3.67.79"/>
      <path class="c" d="m159.13,409.82c2.44.09,4.89-.45,7.23-1.3,1.18-.42,2.33-.93,3.45-1.5.57-.28,1.11-.59,1.59-.88l1.41-.83,5.64-3.31c.95-.53,1.86-1.14,2.75-1.76l2.71-1.83"/>
    </g>
    <g>
      <path class="c" d="m194.42,371.33c-6.01,5.28-12.13,10.46-18.79,14.79"/>
      <path class="c" d="m196.92,374.06c-6.14,5.4-12.4,10.69-19.22,15.13"/>
      <path class="c" d="m181.85,395.33c7.14-4.66,13.68-10.17,20.08-15.81"/>
      <path class="c" d="m199.43,376.79c-6.27,5.52-12.67,10.92-19.65,15.47"/>
      <path class="c" d="m183.92,398.4c7.31-4.77,13.99-10.4,20.51-16.15"/>
    </g>
    <g>
      <path class="c" d="m211.1,353.81c-5.16,6.28-10.88,11.98-16.69,17.52"/>
      <path class="c" d="m213.93,356.2c-5.25,6.39-11.08,12.2-17.01,17.86"/>
      <path class="c" d="m201.93,379.52c6.18-5.88,12.23-11.93,17.66-18.53"/>
      <path class="c" d="m216.76,358.6c-5.34,6.5-11.28,12.43-17.33,18.2"/>
      <path class="c" d="m204.44,382.25c6.3-6,12.46-12.16,17.98-18.87"/>
    </g>
    <g>
      <path class="c" d="m225.9,334.33c-4.7,6.7-9.49,13.35-14.8,19.48"/>
      <path class="c" d="m228.97,336.41c-4.77,6.8-9.63,13.55-15.04,19.79"/>
      <path class="c" d="m219.59,360.99c5.59-6.46,10.6-13.41,15.51-20.41"/>
      <path class="c" d="m232.04,338.49c-4.84,6.9-9.78,13.75-15.27,20.1"/>
      <path class="c" d="m222.42,363.38c5.69-6.58,10.77-13.62,15.75-20.72"/>
    </g>
    <g>
      <path class="c" d="m238.83,313.26c-3.98,7.26-8.4,14.21-12.93,21.07"/>
      <path class="c" d="m242.06,315.07c-4.03,7.35-8.51,14.39-13.09,21.34"/>
      <path class="c" d="m235.1,340.57c4.72-7.14,9.31-14.37,13.43-21.88"/>
      <path class="c" d="m245.3,316.88c-4.08,7.43-8.61,14.56-13.26,21.61"/>
      <path class="c" d="m238.17,342.66c4.78-7.23,9.43-14.56,13.6-22.15"/>
    </g>
    <g>
      <path class="c" d="m250.23,291.11l-2.72,5.62-1.36,2.81-1.44,2.76-2.87,5.53c-.97,1.84-2.01,3.62-3.01,5.43"/>
      <path class="c" d="m253.58,292.69l-2.75,5.67-1.37,2.84-1.45,2.79-2.9,5.58c-.98,1.86-2.03,3.66-3.04,5.5"/>
      <path class="c" d="m248.53,318.69c1.03-1.87,2.11-3.73,3.11-5.62l2.96-5.7,1.48-2.85,1.4-2.89,2.8-5.78"/>
      <path class="c" d="m256.94,294.27l-2.78,5.73-1.39,2.86-1.47,2.82-2.93,5.64c-.99,1.87-2.05,3.7-3.08,5.56"/>
      <path class="c" d="m251.76,320.51c1.05-1.9,2.14-3.77,3.14-5.68l2.99-5.76,1.5-2.88,1.42-2.92,2.83-5.84"/>
    </g>
    <g>
      <path class="c" d="m260.24,268.08c-1.54,3.94-3.22,7.75-4.85,11.61-1.67,3.83-3.41,7.62-5.15,11.41"/>
      <path class="c" d="m263.67,269.47c-1.55,3.96-3.25,7.81-4.89,11.7-1.68,3.87-3.44,7.69-5.2,11.52"/>
      <path class="c" d="m260.29,295.84c1.79-3.89,3.58-7.79,5.29-11.72,1.67-3.95,3.39-7.87,4.96-11.87"/>
      <path class="c" d="m267.11,270.86c-1.56,3.98-3.27,7.86-4.92,11.78-1.69,3.9-3.47,7.76-5.25,11.62"/>
      <path class="c" d="m263.64,297.42c1.81-3.93,3.62-7.86,5.34-11.82,1.68-3.98,3.42-7.94,5-11.96"/>
    </g>
    <g>
      <path class="c" d="m269.32,244.38c-1.48,3.97-2.92,7.98-4.46,11.91l-2.27,5.92-2.36,5.86"/>
      <path class="c" d="m272.8,245.66c-1.49,3.99-2.93,8.01-4.48,11.96l-2.29,5.95-2.37,5.9"/>
      <path class="c" d="m270.54,272.25l2.4-5.97,2.31-6.01c1.56-4,3.01-8.04,4.51-12.07"/>
      <path class="c" d="m276.29,246.93c-1.5,4.01-2.94,8.04-4.5,12.02l-2.3,5.98-2.38,5.94"/>
      <path class="c" d="m273.98,273.64l2.41-6.01,2.32-6.04c1.57-4.02,3.03-8.08,4.53-12.12"/>
    </g>
    <g>
      <path class="c" d="m277.9,220.24c-2.82,8.11-5.67,16.15-8.58,24.14"/>
      <path class="c" d="m281.4,221.46c-2.82,8.11-5.67,16.18-8.6,24.2"/>
      <path class="c" d="m279.77,248.2c2.94-8.07,5.81-16.18,8.63-24.3"/>
      <path class="c" d="m284.9,222.68c-2.82,8.12-5.68,16.2-8.61,24.25"/>
      <path class="c" d="m283.25,249.47c2.95-8.1,5.82-16.22,8.65-24.35"/>
    </g>
    <g>
      <line class="c" x1="286.42" y1="195.83" x2="277.9" y2="220.24"/>
      <line class="c" x1="289.91" y1="197.06" x2="281.4" y2="221.46"/>
      <line class="c" x1="288.4" y1="223.9" x2="296.9" y2="199.52"/>
      <line class="c" x1="293.41" y1="198.29" x2="284.9" y2="222.68"/>
      <line class="c" x1="291.9" y1="225.12" x2="300.4" y2="200.75"/>
    </g>
    <g>
      <path class="c" d="m295.32,171.3c-3.09,8.17-6.02,16.36-8.91,24.52"/>
      <path class="c" d="m298.79,172.61c-3.08,8.14-6,16.3-8.88,24.45"/>
      <path class="c" d="m296.9,199.52c2.87-8.12,5.77-16.23,8.82-24.29"/>
      <path class="c" d="m302.26,173.92c-3.07,8.1-5.98,16.23-8.85,24.37"/>
      <path class="c" d="m300.4,200.75c2.86-8.1,5.76-16.19,8.8-24.22"/>
    </g>
    <g>
      <path class="c" d="m305.07,146.85c-1.69,4.06-3.42,8.12-5,12.21l-2.42,6.12-2.33,6.13"/>
      <path class="c" d="m308.48,148.3c-1.68,4.04-3.4,8.07-4.97,12.13l-2.4,6.08-2.32,6.1"/>
      <path class="c" d="m305.73,175.23l2.29-6.04,2.38-6.02c1.56-4.02,3.25-7.99,4.91-11.97"/>
      <path class="c" d="m311.89,149.74c-1.67,4.01-3.37,8.01-4.94,12.05l-2.39,6.05-2.31,6.07"/>
      <path class="c" d="m309.19,176.53l2.28-6.02,2.36-5.98c1.55-4,3.23-7.94,4.88-11.9"/>
    </g>
    <g>
      <path class="c" d="m346.43,181.01c.78-8.73,1.24-17.62,1.08-26.64"/>
      <path class="c" d="m342.74,180.68c.77-8.63,1.22-17.39,1.07-26.25"/>
      <path class="c" d="m336.4,154.57c.15,8.51-.29,17.01-1.04,25.46"/>
      <path class="c" d="m339.05,180.35c.76-8.54,1.21-17.17,1.05-25.85"/>
      <path class="c" d="m332.69,154.63c.15,8.34-.28,16.71-1.03,25.06"/>
    </g>
    <g>
      <path class="c" d="m343.38,206.77c1.17-8.45,2.26-17.02,3.05-25.75"/>
      <path class="c" d="m339.71,206.26c1.16-8.42,2.25-16.94,3.03-25.58"/>
      <path class="c" d="m335.36,180.02c-.76,8.45-1.83,16.85-2.99,25.22"/>
      <path class="c" d="m336.04,205.75c1.16-8.4,2.24-16.86,3.01-25.4"/>
      <path class="c" d="m331.67,179.69c-.75,8.35-1.81,16.7-2.97,25.05"/>
    </g>
    <g>
      <path class="c" d="m339.94,231.71c1.03-8.18,2.28-16.49,3.44-24.94"/>
      <path class="c" d="m336.27,231.25c1.04-8.24,2.29-16.56,3.45-24.99"/>
      <path class="c" d="m332.37,205.25c-1.15,8.38-2.41,16.72-3.46,25.07"/>
      <path class="c" d="m332.59,230.79c1.04-8.3,2.3-16.63,3.45-25.03"/>
      <path class="c" d="m328.7,204.74c-1.15,8.35-2.4,16.71-3.46,25.12"/>
    </g>
    <g>
      <path class="c" d="m337.62,256.04c.44-8.02,1.29-16.13,2.32-24.33"/>
      <path class="c" d="m333.92,255.84c.45-8.14,1.3-16.34,2.34-24.58"/>
      <path class="c" d="m328.91,230.32c-1.05,8.35-1.93,16.72-2.39,25.1"/>
      <path class="c" d="m330.22,255.63c.46-8.26,1.32-16.54,2.37-24.84"/>
      <path class="c" d="m325.24,229.86c-1.06,8.41-1.94,16.86-2.42,25.36"/>
    </g>
    <g>
      <path class="c" d="m337.7,279.73c-.57-7.75-.52-15.67-.08-23.68"/>
      <path class="c" d="m334,280c-.58-7.94-.53-16.02-.08-24.16"/>
      <path class="c" d="m326.52,255.43c-.46,8.38-.52,16.77.09,25.11"/>
      <path class="c" d="m330.3,280.27c-.59-8.14-.54-16.38-.08-24.64"/>
      <path class="c" d="m322.82,255.22c-.47,8.5-.53,17.05.09,25.59"/>
    </g>
    <g>
      <path class="c" d="m341.41,302.28c-1.97-7.24-3.15-14.81-3.71-22.55"/>
      <path class="c" d="m337.83,303.25c-2.04-7.51-3.25-15.31-3.83-23.25"/>
      <path class="c" d="m326.61,280.54c.61,8.33,1.89,16.62,4.07,24.65"/>
      <path class="c" d="m334.26,304.22c-2.11-7.77-3.36-15.82-3.95-23.95"/>
      <path class="c" d="m322.91,280.81c.62,8.53,1.94,17.05,4.19,25.36"/>
    </g>
    <g>
      <path class="c" d="m349.75,322.41c-1.86-3.1-3.49-6.34-4.86-9.65-.69-1.66-1.3-3.29-1.87-5.11l-.87-2.66c-.31-.88-.5-1.81-.75-2.71"/>
      <path class="c" d="m346.57,324.31c-1.95-3.26-3.66-6.65-5.1-10.13-.73-1.74-1.37-3.48-1.96-5.35l-.9-2.76c-.32-.91-.52-1.87-.78-2.81"/>
      <path class="c" d="m330.68,305.19c.28,1,.5,2.02.84,3.01l.97,2.97c.62,1.99,1.34,3.93,2.14,5.84,1.59,3.83,3.46,7.54,5.59,11.1"/>
      <path class="c" d="m343.39,326.21c-2.04-3.41-3.83-6.96-5.34-10.62-.76-1.83-1.45-3.67-2.05-5.6l-.93-2.87c-.33-.95-.54-1.94-.81-2.91"/>
      <path class="c" d="m327.11,306.16c.29,1.03.52,2.09.87,3.11l1,3.07c.64,2.05,1.4,4.09,2.23,6.09,1.66,4,3.61,7.87,5.83,11.58"/>
    </g>
    <g>
      <path class="c" d="m363.34,339.15c-5.27-4.82-9.88-10.53-13.59-16.74"/>
      <path class="c" d="m360.84,341.88c-5.55-5.08-10.38-11.06-14.27-17.57"/>
      <path class="c" d="m340.21,328.11c4.26,7.12,9.52,13.64,15.63,19.24"/>
      <path class="c" d="m358.34,344.62c-5.83-5.34-10.88-11.59-14.95-18.41"/>
      <path class="c" d="m337.03,330.01c4.44,7.42,9.92,14.22,16.31,20.07"/>
    </g>
    <g>
      <path class="c" d="m380.79,350.47c-6.25-2.56-12.18-6.5-17.45-11.32"/>
      <path class="c" d="m379.38,353.89c-6.71-2.75-12.99-6.94-18.53-12.01"/>
      <path class="c" d="m355.84,347.35c6.11,5.59,13.08,10.26,20.71,13.39"/>
      <path class="c" d="m377.96,357.32c-7.17-2.94-13.8-7.37-19.62-12.7"/>
      <path class="c" d="m353.34,350.09c6.39,5.84,13.71,10.76,21.8,14.08"/>
    </g>
    <g>
      <path class="c" d="m399.95,353.87c-6.39.38-12.91-.82-19.16-3.4"/>
      <path class="c" d="m400.17,357.57c-6.99.41-14.09-.91-20.79-3.67"/>
      <path class="c" d="m376.55,360.75c7.61,3.14,15.87,4.71,24.05,4.22"/>
      <path class="c" d="m400.39,361.27c-7.59.45-15.27-.99-22.42-3.95"/>
      <path class="c" d="m375.14,364.17c8.06,3.33,16.9,5.02,25.69,4.49"/>
    </g>
    <g>
      <path class="c" d="m419.92,348.38c-6.97,3.07-13.62,5.13-19.97,5.49"/>
      <path class="c" d="m421.42,351.77c-7.19,3.17-14.28,5.4-21.25,5.8"/>
      <path class="c" d="m400.61,364.97c8.2-.48,16.18-3.06,23.79-6.41"/>
      <path class="c" d="m422.91,355.16c-7.4,3.26-14.94,5.67-22.52,6.11"/>
      <path class="c" d="m400.83,368.67c8.82-.52,17.24-3.27,25.07-6.72"/>
    </g>
    <g>
      <path class="c" d="m442.17,337.35c-8.01,3.91-15.27,7.97-22.25,11.03"/>
      <path class="c" d="m443.8,340.68c-7.88,3.85-15.18,7.93-22.38,11.09"/>
      <path class="c" d="m424.4,358.55c7.64-3.36,15-7.49,22.64-11.21"/>
      <path class="c" d="m445.42,344.01c-7.76,3.78-15.09,7.89-22.51,11.15"/>
      <path class="c" d="m425.9,361.94c7.86-3.46,15.25-7.61,22.77-11.27"/>
    </g>
    <g>
      <path class="c" d="m467.98,327.52c-4.4,1.22-8.81,2.63-13.17,4.27-4.38,1.68-8.65,3.6-12.64,5.55"/>
      <path class="c" d="m468.97,331.1c-4.3,1.19-8.6,2.57-12.84,4.17-4.25,1.63-8.4,3.49-12.33,5.42"/>
      <path class="c" d="m447.05,347.34c3.82-1.87,7.72-3.62,11.72-5.15,4-1.51,8.07-2.81,12.18-3.95"/>
      <path class="c" d="m469.95,334.67c-4.21,1.17-8.39,2.5-12.51,4.06-4.13,1.58-8.15,3.39-12.02,5.28"/>
      <path class="c" d="m448.67,350.67c3.76-1.84,7.54-3.54,11.41-5.02,3.88-1.46,7.84-2.73,11.85-3.84"/>
    </g>
    <g>
      <path class="c" d="m494.22,322.1c-8.64,1.35-17.42,2.97-26.24,5.42"/>
      <path class="c" d="m494.78,325.76c-8.55,1.34-17.2,2.93-25.81,5.33"/>
      <path class="c" d="m470.94,338.24c8.22-2.29,16.59-3.84,24.97-5.15"/>
      <path class="c" d="m495.35,329.43c-8.46,1.32-16.97,2.9-25.39,5.24"/>
      <path class="c" d="m471.93,341.81c8.02-2.24,16.26-3.76,24.54-5.06"/>
    </g>
    <g>
      <path class="c" d="m519.69,318.71c-8.39,1.05-16.81,2.07-25.46,3.39"/>
      <path class="c" d="m520.14,322.39c-8.38,1.05-16.8,2.07-25.36,3.38"/>
      <path class="c" d="m495.91,333.09c8.38-1.28,16.77-2.29,25.15-3.35"/>
      <path class="c" d="m520.6,326.07c-8.38,1.05-16.78,2.07-25.25,3.36"/>
      <path class="c" d="m496.47,336.75c8.29-1.26,16.67-2.28,25.04-3.33"/>
    </g>
    <g>
      <path class="c" d="m545.04,315.71c-8.49.93-16.96,1.94-25.36,3"/>
      <path class="c" d="m545.44,319.4c-8.46.93-16.9,1.94-25.3,2.99"/>
      <path class="c" d="m521.06,329.74c8.38-1.05,16.77-2.05,25.18-2.98"/>
      <path class="c" d="m545.84,323.08c-8.43.93-16.85,1.93-25.24,2.98"/>
      <path class="c" d="m521.52,333.42c8.37-1.05,16.74-2.05,25.12-2.97"/>
    </g>
    <g>
      <path class="c" d="m570.72,313.37l-6.45.48-6.42.58c-4.29.36-8.53.85-12.8,1.28"/>
      <path class="c" d="m570.99,317.07l-6.41.48-6.39.58c-4.27.36-8.49.85-12.74,1.27"/>
      <path class="c" d="m546.24,326.76c4.21-.42,8.41-.91,12.62-1.26l6.32-.57,6.33-.47"/>
      <path class="c" d="m571.25,320.76l-6.37.48-6.35.57c-4.24.36-8.45.85-12.68,1.27"/>
      <path class="c" d="m546.64,330.45c4.19-.42,8.37-.91,12.57-1.26l6.29-.57,6.29-.47"/>
    </g>
    <g>
      <path class="c" d="m596.72,312.16c-8.71.2-17.39.56-26,1.21"/>
      <path class="c" d="m596.78,315.86c-8.63.19-17.24.55-25.79,1.21"/>
      <path class="c" d="m571.52,324.46c8.44-.65,16.91-1,25.38-1.19"/>
      <path class="c" d="m596.84,319.57c-8.55.19-17.09.55-25.59,1.2"/>
      <path class="c" d="m571.79,328.15c8.39-.64,16.78-.99,25.18-1.18"/>
    </g>
    <g>
      <path class="c" d="m623.02,312.72c-2.2-.12-4.4-.28-6.6-.36l-6.58-.17-3.29-.08h-3.28s-6.55.04-6.55.04"/>
      <path class="c" d="m622.79,316.42c-2.17-.12-4.35-.28-6.52-.36l-6.51-.17-3.25-.08h-3.24s-6.49.04-6.49.04"/>
      <path class="c" d="m596.9,323.27l6.36-.03h3.18s3.18.07,3.18.07l6.36.16c2.12.08,4.24.24,6.36.35"/>
      <path class="c" d="m622.56,320.12c-2.15-.12-4.29-.27-6.44-.36l-6.43-.16-3.22-.08h-3.21s-6.42.04-6.42.04"/>
      <path class="c" d="m596.96,326.98l6.29-.03h3.15s3.14.07,3.14.07l6.29.16c2.09.08,4.18.23,6.28.35"/>
    </g>
    <g>
      <path class="c" d="m649.44,315.58c-2.2-.38-4.4-.62-6.6-.94-2.2-.28-4.4-.65-6.61-.82-4.4-.41-8.81-.9-13.21-1.09"/>
      <path class="c" d="m648.84,319.24c-2.16-.37-4.34-.61-6.5-.93-2.17-.27-4.34-.64-6.51-.81-4.35-.4-8.69-.89-13.04-1.08"/>
      <path class="c" d="m622.34,323.82c4.24.18,8.46.66,12.69,1.05,2.12.16,4.21.52,6.32.79,2.1.3,4.21.54,6.31.9"/>
      <path class="c" d="m648.25,322.9c-2.13-.37-4.27-.6-6.41-.91-2.14-.27-4.27-.64-6.42-.8-4.29-.4-8.57-.88-12.86-1.06"/>
      <path class="c" d="m622.11,327.52c4.19.18,8.35.65,12.52,1.04,2.09.16,4.15.52,6.23.78,2.07.3,4.15.53,6.21.88"/>
    </g>
    <g>
      <path class="c" d="m675.63,321.46c-2.16-.61-4.32-1.24-6.49-1.82l-6.55-1.51-3.27-.75c-1.09-.23-2.19-.41-3.29-.61l-6.59-1.19"/>
      <path class="c" d="m674.6,325.02l-6.37-1.79-6.44-1.48-3.22-.74c-1.08-.22-2.16-.4-3.24-.6l-6.48-1.17"/>
      <path class="c" d="m647.66,326.56l6.27,1.14c1.04.2,2.09.36,3.13.58l3.11.71,6.22,1.43,6.14,1.73"/>
      <path class="c" d="m673.57,328.58l-6.26-1.76-6.33-1.46-3.16-.73c-1.06-.22-2.12-.39-3.19-.59l-6.38-1.15"/>
      <path class="c" d="m647.07,330.22l6.17,1.12c1.03.19,2.06.36,3.08.57l3.05.7,6.11,1.4,6.03,1.69"/>
    </g>
    <g>
      <path class="c" d="m700.29,329.55l-12.03-4.14c-4.09-1.38-8.25-2.77-12.63-3.95"/>
      <path class="c" d="m699.08,333.06l-12.02-4.14c-4.06-1.37-8.18-2.75-12.47-3.9"/>
      <path class="c" d="m672.54,332.14c4.11,1.1,8.14,2.45,12.15,3.8l11.98,4.12"/>
      <path class="c" d="m697.88,336.56l-12-4.13c-4.04-1.36-8.11-2.72-12.31-3.85"/>
      <path class="c" d="m671.51,335.7c4.03,1.08,8.01,2.41,11.99,3.75l11.96,4.12"/>
    </g>
    <g>
      <path class="c" d="m723.36,336.62c-7.51-1.82-15.19-4.35-23.07-7.06"/>
      <path class="c" d="m722.49,340.22c-7.71-1.87-15.5-4.44-23.41-7.16"/>
      <path class="c" d="m696.67,340.07c7.97,2.74,15.95,5.38,24.08,7.35"/>
      <path class="c" d="m721.62,343.82c-7.92-1.92-15.8-4.53-23.74-7.26"/>
      <path class="c" d="m695.47,343.57c8,2.75,16.08,5.43,24.41,7.45"/>
    </g>
    <g>
      <path class="c" d="m744.88,339.18c-6.71.32-14.02-.74-21.52-2.56"/>
      <path class="c" d="m745.05,342.88c-7.22.33-14.86-.79-22.56-2.66"/>
      <path class="c" d="m720.75,347.42c8.11,1.96,16.4,3.24,24.64,2.86"/>
      <path class="c" d="m745.22,346.58c-7.73.35-15.7-.85-23.6-2.76"/>
      <path class="c" d="m719.88,351.02c8.31,2.01,16.94,3.36,25.68,2.96"/>
    </g>
    <g>
      <path class="c" d="m762.9,333.94c-5.3,3.28-11.3,4.93-18.02,5.24"/>
      <path class="c" d="m764.83,337.1c-5.85,3.63-12.56,5.46-19.78,5.78"/>
      <path class="c" d="m745.39,350.28c8.21-.35,16.34-2.53,23.3-6.86"/>
      <path class="c" d="m766.76,340.27c-6.4,3.98-13.82,5.98-21.54,6.32"/>
      <path class="c" d="m745.56,353.99c4.36-.2,8.74-.85,12.98-2.07,4.24-1.2,8.32-3.02,12.08-5.32"/>
    </g>
    <g>
      <path class="c" d="m778.52,319.36c-1.35,1.57-2.66,3.01-3.97,4.46-1.3,1.36-2.6,2.76-3.89,3.96-2.59,2.45-5.15,4.62-7.76,6.15"/>
      <path class="c" d="m781.31,321.79c-2.72,3.13-5.36,6.08-8.09,8.66-2.73,2.58-5.48,4.92-8.39,6.64"/>
      <path class="c" d="m768.69,343.43c3.51-2.09,6.66-4.78,9.66-7.62,3-2.85,5.79-5.97,8.55-9.15"/>
      <path class="c" d="m784.11,324.23c-2.74,3.15-5.45,6.19-8.32,8.9-2.87,2.71-5.82,5.23-9.03,7.13"/>
      <path class="c" d="m770.62,346.59c3.81-2.27,7.15-5.13,10.3-8.1,3.14-2.99,6-6.19,8.78-9.39"/>
    </g>
    <g>
      <path class="c" d="m797.69,299.54c-8.02,6.49-13.79,13.69-19.17,19.82"/>
      <path class="c" d="m800,302.43c-7.6,6.15-13.26,13.16-18.68,19.36"/>
      <path class="c" d="m786.9,326.66c5.52-6.33,10.95-12.98,17.72-18.43"/>
      <path class="c" d="m802.31,305.33c-7.18,5.8-12.73,12.63-18.2,18.9"/>
      <path class="c" d="m789.7,329.1c5.56-6.4,10.89-12.86,17.23-17.97"/>
    </g>
    <g>
      <path class="c" d="m827.52,287.34c-2.69.21-5.41.71-8.09,1.32-2.67.68-5.33,1.5-7.86,2.58-5.09,2.16-9.87,5.06-13.87,8.29"/>
      <path class="c" d="m827.85,291.03c-5.04.45-10.13,1.64-14.87,3.64-4.73,2.02-9.19,4.7-12.98,7.76"/>
      <path class="c" d="m804.62,308.23c3.37-2.73,7.17-4.98,11.2-6.71,4.04-1.7,8.36-2.71,12.7-3.1"/>
      <path class="c" d="m828.18,294.72c-4.69.42-9.4,1.52-13.79,3.37-4.38,1.87-8.51,4.34-12.09,7.24"/>
      <path class="c" d="m806.93,311.13c3.17-2.56,6.64-4.6,10.3-6.18,3.69-1.56,7.62-2.48,11.62-2.84"/>
    </g>
    <g>
      <path class="c" d="m857.39,291.28c-4.51-1.4-9.21-2.63-14.21-3.38-5-.73-10.26-1.08-15.66-.56"/>
      <path class="c" d="m856.28,294.82c-4.37-1.36-8.9-2.54-13.65-3.25-4.75-.69-9.72-1.02-14.77-.53"/>
      <path class="c" d="m828.52,298.41c8.74-.79,17.39.92,25.53,3.47"/>
      <path class="c" d="m855.16,298.35c-4.23-1.32-8.58-2.44-13.1-3.12-4.51-.66-9.18-.96-13.88-.51"/>
      <path class="c" d="m828.85,302.1c8.03-.74,16.21.84,24.08,3.32"/>
    </g>
    <g>
      <path class="c" d="m882.31,301.31c-7.78-3.54-15.93-7.18-24.92-10.03"/>
      <path class="c" d="m880.77,304.68c-7.75-3.53-15.78-7.1-24.5-9.87"/>
      <path class="c" d="m854.05,301.89c8.17,2.59,15.96,6.04,23.65,9.54"/>
      <path class="c" d="m879.24,308.06c-7.72-3.51-15.63-7.03-24.07-9.7"/>
      <path class="c" d="m852.94,305.42c7.9,2.5,15.56,5.89,23.22,9.38"/>
    </g>
    <g>
      <path class="c" d="m904.71,311.02c-3.65-1.44-7.25-2.82-10.99-4.52-3.73-1.65-7.52-3.42-11.41-5.19"/>
      <path class="c" d="m903.42,314.49c-3.73-1.47-7.43-2.9-11.2-4.6-3.76-1.67-7.57-3.44-11.45-5.2"/>
      <path class="c" d="m877.7,311.43c3.85,1.75,7.67,3.53,11.51,5.23,3.83,1.74,7.73,3.25,11.62,4.78"/>
      <path class="c" d="m902.13,317.97c-3.81-1.5-7.61-2.97-11.41-4.69-3.8-1.69-7.62-3.46-11.48-5.22"/>
      <path class="c" d="m876.16,314.8c3.83,1.75,7.67,3.53,11.55,5.25,3.87,1.75,7.86,3.3,11.84,4.86"/>
    </g>
    <g>
      <path class="c" d="m927.38,317.68c-7.73-1.75-15.32-3.94-22.67-6.66"/>
      <path class="c" d="m926.56,321.3c-7.88-1.79-15.62-4.02-23.14-6.8"/>
      <path class="c" d="m900.84,321.44c7.85,2.91,15.91,5.23,24.08,7.08"/>
      <path class="c" d="m925.74,324.91c-8.02-1.82-15.93-4.1-23.61-6.94"/>
      <path class="c" d="m899.55,324.91c8.01,2.97,16.24,5.34,24.55,7.23"/>
    </g>
    <g>
      <path class="c" d="m951,321.67c-7.99-.94-15.89-2.24-23.62-3.99"/>
      <path class="c" d="m950.57,325.35c-8.11-.95-16.13-2.27-24.01-4.06"/>
      <path class="c" d="m924.92,328.53c8.17,1.85,16.46,3.21,24.8,4.19"/>
      <path class="c" d="m950.15,329.04c-8.22-.97-16.38-2.31-24.41-4.12"/>
      <path class="c" d="m924.11,332.14c8.32,1.88,16.74,3.27,25.19,4.26"/>
    </g>
    <g>
      <path class="c" d="m975.28,323.45c-8.17-.31-16.27-.86-24.27-1.78"/>
      <path class="c" d="m975.14,327.15c-8.25-.31-16.45-.86-24.56-1.8"/>
      <path class="c" d="m949.72,332.72c8.34.96,16.73,1.53,25.13,1.84"/>
      <path class="c" d="m975,330.86c-8.32-.32-16.62-.87-24.85-1.82"/>
      <path class="c" d="m949.3,336.4c8.45.97,16.94,1.54,25.42,1.87"/>
    </g>
    <g>
      <path class="c" d="m999.97,323.72c-8.29.1-16.52.04-24.69-.27"/>
      <path class="c" d="m1000.02,327.42c-8.33.1-16.63.04-24.88-.27"/>
      <path class="c" d="m974.86,334.56c8.4.31,16.82.38,25.25.27"/>
      <path class="c" d="m1000.06,331.13c-8.38.1-16.74.04-25.06-.27"/>
      <path class="c" d="m974.72,338.26c8.48.32,16.96.38,25.43.28"/>
    </g>
    <g>
      <path class="c" d="m1025,323.07c-8.39.3-16.73.54-25.03.65"/>
      <path class="c" d="m1025.13,326.77c-8.4.3-16.78.55-25.11.65"/>
      <path class="c" d="m1000.11,334.83c8.42-.11,16.85-.36,25.28-.66"/>
      <path class="c" d="m1025.26,330.47c-8.42.3-16.82.55-25.2.66"/>
      <path class="c" d="m1000.15,338.54c8.47-.11,16.92-.36,25.37-.66"/>
    </g>
    <g>
      <line class="c" x1="1050.33" y1="322.14" x2="1025" y2="323.07"/>
      <line class="c" x1="1050.45" y1="325.84" x2="1025.13" y2="326.77"/>
      <line class="c" x1="1025.39" y1="334.18" x2="1050.71" y2="333.25"/>
      <line class="c" x1="1050.58" y1="329.55" x2="1025.26" y2="330.47"/>
      <line class="c" x1="1025.52" y1="337.88" x2="1050.83" y2="336.95"/>
    </g>
    <g>
      <path class="c" d="m1075.98,321.55c-8.6.07-17.15.3-25.65.59"/>
      <path class="c" d="m1076.01,325.25c-8.56.07-17.07.3-25.55.59"/>
      <path class="c" d="m1050.71,333.25c8.44-.28,16.9-.51,25.36-.58"/>
      <path class="c" d="m1076.04,328.96c-8.51.07-16.99.3-25.46.58"/>
      <path class="c" d="m1050.83,336.95c8.43-.28,16.85-.51,25.26-.58"/>
    </g>
    <g>
      <path class="c" d="m1101.95,321.96c-8.7-.38-17.37-.5-25.97-.42"/>
      <path class="c" d="m1101.79,325.67c-8.63-.37-17.23-.5-25.78-.41"/>
      <path class="c" d="m1076.07,332.67c8.46-.08,16.93.04,25.4.41"/>
      <path class="c" d="m1101.63,329.37c-8.55-.37-17.08-.49-25.59-.41"/>
      <path class="c" d="m1076.1,336.37c8.42-.08,16.82.04,25.21.4"/>
    </g>
    <g>
      <path class="c" d="m1128.18,324.05c-8.76-1.05-17.52-1.71-26.22-2.09"/>
      <path class="c" d="m1127.73,327.73c-8.65-1.04-17.31-1.69-25.93-2.07"/>
      <path class="c" d="m1101.47,333.07c8.47.37,16.93,1.01,25.36,2.02"/>
      <path class="c" d="m1127.28,331.41c-8.54-1.02-17.1-1.67-25.65-2.04"/>
      <path class="c" d="m1101.31,336.77c8.39.37,16.76,1,25.07,1.99"/>
    </g>
    <g>
      <path class="b" d="m347.52,154.6l-.03-1.74-.02-1.06v-.53s-.03-.53-.03-.53l-.22-4.28-.06-1.07-.03-.53-.04-.54-.19-2.15-.2-2.15-.1-1.07-.05-.54-.03-.27-.04-.27c-.13-.94-.26-1.88-.4-2.81-.15-.93-.3-1.85-.44-2.77l-.12-.68-.15-.68-.31-1.35c-.22-.89-.43-1.78-.65-2.66l-.34-1.31-.09-.32-.1-.32-.2-.64c-.28-.84-.56-1.68-.84-2.52-.29-.82-.58-1.63-.87-2.44l-.11-.3-.11-.28-.23-.54-.46-1.06-.93-2.08-.95-2.01-.97-1.94-.99-1.87-1.01-1.79-1.03-1.71-1.04-1.63-.53-.79-.53-.76-.07-.09-.02-.02h0s-.01,0-.01,0l-.04.04-.17.15-.34.31-.69.64-.69.66-.69.68-1.39,1.42-1.4,1.5-1.4,1.58-1.39,1.65-1.39,1.73-1.38,1.8-1.37,1.87c-.45.67-.91,1.34-1.36,2.02-.45.69-.9,1.39-1.35,2.09-.44.72-.89,1.43-1.33,2.15-.44.74-.87,1.47-1.31,2.22l-.32.56-.31.57-.61,1.16c-.4.78-.8,1.57-1.2,2.35-.39.8-.78,1.6-1.17,2.41l-.88,1.87-.44.93-.22.47-.21.47-1.66,3.76-1.66,3.76-.83,1.88-.74,1.76"/>
      <path class="b" d="m343.81,154.43l-.04-2.01-.02-1.01-.02-.5-.03-.5-.21-4.04-.05-1.01-.03-.51-.05-.51-.18-2.02-.18-2.02-.09-1.01-.05-.51-.03-.25-.03-.25c-.11-.75-.21-1.49-.32-2.23-.12-.74-.24-1.47-.35-2.2l-.19-1.08-.1-.54-.12-.53c-.17-.71-.34-1.41-.52-2.11-.18-.69-.37-1.37-.55-2.06l-.28-1.01-.15-.5-.17-.49c-.23-.65-.46-1.29-.7-1.94l-.72-1.88-.37-.91-.37-.89-.78-1.63-.79-1.58-.81-1.52-.83-1.46-.84-1.39-.85-1.32-.86-1.26-1.12,1.03-1.13,1.1-1.13,1.16-1.14,1.23-1.14,1.29-1.13,1.35-1.13,1.41-1.12,1.51-1.11,1.58-1.1,1.63c-.36.56-.72,1.12-1.09,1.69-.36.58-.71,1.16-1.07,1.74l-.53.89-.5.91c-.33.62-.66,1.24-.99,1.86-.32.63-.64,1.27-.96,1.91-.31.65-.62,1.3-.94,1.95l-.83,1.77-.42.89-.4.89-1.58,3.58-1.58,3.58-.79,1.79-.75,1.8"/>
      <path class="b" d="m340.1,154.5l-.03-1.97-.02-.99-.02-.49-.03-.49-.21-3.95-.05-.99-.03-.49-.04-.49-.18-1.98-.18-1.98-.09-.99-.05-.49-.02-.25-.03-.25c-.08-.56-.16-1.11-.24-1.67-.09-.55-.18-1.09-.26-1.64-.1-.54-.19-1.08-.29-1.61l-.16-.79-.04-.2-.05-.2-.1-.39c-.14-.51-.27-1.02-.41-1.53l-.43-1.5-.45-1.46-.23-.71-.06-.18-.07-.17-.14-.35-.56-1.36-.57-1.31-.59-1.26-.6-1.2-.15-.29-.16-.28-.32-.55-.64-1.06-.65-1.01-.66-.96-.86.79-.86.84-.87.89-.43.46-.43.48-.86,1.01-.86,1.06-.85,1.1-.85,1.15-.84,1.2-.84,1.24-.83,1.28-.2.33-.2.33-.39.67c-.25.46-.51.91-.76,1.37-.25.47-.5.94-.75,1.41-.24.48-.49.96-.73,1.45-.24.49-.47.98-.71,1.48l-.83,1.76-.41.88-.39.89-1.57,3.55-1.57,3.55-.78,1.77-.75,1.79"/>
      <path class="b" d="m336.4,154.57l-.03-1.93-.02-.97-.02-.48-.03-.48-.2-3.87-.05-.97-.03-.48-.04-.48-.17-1.93-.17-1.93-.09-.96-.04-.48-.02-.24-.03-.24c-.05-.38-.11-.75-.16-1.12-.06-.37-.12-.74-.18-1.11-.07-.36-.13-.73-.2-1.09l-.22-1.06-.23-1.04-.06-.26-.07-.25-.15-.5-.31-.98-.32-.96-.34-.93-.35-.9-.36-.86-.18-.42-.21-.41-.42-.79-.43-.75-.43-.71-.22-.34-.11-.17-.05-.08-.03-.04v-.02s-.02-.01-.02-.01h0c.06,0,.06,0,.09,0l-.59.55-.59.59-.59.62-.59.66-.59.69-.59.73-.59.76-.58.79-.58.82-.55.86-.54.89-.53.92-.52.94-.51.97c-.17.33-.33.66-.5.99-.16.34-.32.67-.49,1.01l-.82,1.74-.41.87-.39.88-1.55,3.52-1.55,3.52-.78,1.76-.74,1.77"/>
      <path class="b" d="m318.71,152.64l.74-1.76.77-1.75,1.54-3.49,1.54-3.49.39-.87.41-.86.81-1.73.27-.56.28-.55.28-.53.29-.52.29-.51.3-.49.3-.47.31-.46.31-.44.31-.43.31-.41.32-.39.32-.37.16-.18.16-.17.33-.33.33-.3c-.49-.13-.51-.13-.58-.15h0s0,0,0,0h0s.01.03.01.03l.03.05.06.09.11.19.22.4.21.42.21.44.2.45.2.47.17.49.16.51.15.52.14.54.14.55.13.56.12.58.11.59.1.6.09.61.03.23.02.24.04.47.09.94.17,1.88.17,1.88.04.47.03.47.05.95.2,3.78.02.47.02.47.02.95.03,1.89"/>
    </g>
  </g>
  <g>
    <path class="d" d="m339.39,33.85c1.27-3.2.63-4.68-1.92-4.42-1.78-.39-3.57-.32-5.35.23-2.31.71-4.39,1.91-6.35,3.29-2.46,1.74-4.73,4.26-6.22,6.9-1.4,2.47-2.23,5.13-3,7.86-.86,3.04-1.35,5.88-.91,9.01.22,1.86.86,3.55,1.92,5.06.47,1.21,1.26,2.17,2.36,2.87,2.48,2.19,5.42,3.47,8.65,4.13,2.01.3,4.01.29,6-.05,2.01-.13,3.96-.55,5.86-1.28,3.38-1.44,6.2-3.65,8.78-6.26,2.79-2.82,4.85-6.14,6.82-9.57,2.6-4.53,5.5-9.59,5.58-14.96.05-3.23-1.83-6.67-3.98-8.95s-4.46-4.08-7.3-5.23-6.34-2.06-9.53-2.06c-4.26,0-8.47.84-12.62,1.68-.09.02,1.48,1.53,1.66,1.68.55.45,1.11.89,1.68,1.31.38.33.79.6,1.24.8,5.01.02,10.93-.65,15.44,2.11,3.36,2.06,6.13,4.94,6.93,8.9.72,3.54-.99,7.08-2.63,10.16-1.19,2.25-2.8,4.14-4.25,6.22-1.81,2.61-3.89,5.53-6.69,7.17l-5.07,2.25-2.66.59c-2.29.36-4.64-.17-6.81-.87-4.16-1.34-6.34-5.08-6.9-9.25s1.42-8.17,3.47-11.42c.3-1.33,1-2.22,2.11-2.69.96-.4,1.62-1.13,1.99-2.2.99-.96,2.16-1.82,3.53-2.1.92-.21,1.71-.02,2.35.57,1.48.73,1.63,2.11.45,4.16.3-.03.54-.18.73-.44.74-.71,1.46-1.44,2.16-2.2.47-.49,2.5-2.13,2.47-3.03Z"/>
    <path class="d" d="m338.22,37.21c1.4-3.32.84-4.78-1.69-4.4-1.67-.26-3.3-.08-4.91.54-2.1.78-4.02,1.98-5.84,3.27-2.57,1.81-4.24,3.86-5.66,6.65-1.17,2.32-2.03,4.74-2.78,7.23-.84,2.8-1.3,5.45-.98,8.36.16,1.83.72,3.5,1.7,5.02.4,1.23,1.15,2.17,2.25,2.84,2.42,2.11,5.35,3.43,8.51,4.03,1.96.21,3.89.12,5.8-.27,1.92-.2,3.77-.67,5.56-1.42,6.72-3.12,10.81-9.11,14.46-15.28,2.57-4.34,5.31-9.14,5.45-14.31.09-3.15-1.76-6.18-3.9-8.37-1.97-2.02-4.16-3.76-6.79-4.83s-5.96-2.02-8.91-2.07c-4.09-.07-8.15.69-12.15,1.4-.13.02,2.84,3.09,2.78,3.03.61.58,2.16,2.54,3.18,2.61,4,.3,8.87-.28,12.36,2.12,2.72,1.87,5.48,5.08,4.81,8.67-.57,3.08-2.75,5.92-4.72,8.28-.77,1.04-1.72,1.91-2.84,2.59l-2.11,2.15-2.41,1.97c-1.27.99-2.7,1.61-4.3,1.86l.31.13-.89-.44c-.6.5-1.26.72-2,.67-1.05.06-1.88-.44-2.94-.47-3.23-.07-4.55-4.11-4.2-6.79.17-1.29.54-2.35,1.17-3.49.44-.86.96-1.67,1.56-2.43l-.47-.88c-.02-.11,2.76-5.32,2.9-5.38,2.58-1.08,1.31,3.41,1.26,4.2.34-.07.62-.26.84-.55.88-.86,1.75-1.74,2.59-2.64.85-.89,1.69-1.8,2.5-2.73.28-.24.45-.53.51-.87Z"/>
    <path class="d" d="m338.98,32.7c1.23-3.13.58-4.61-1.94-4.44-1.78-.46-3.58-.43-5.39.1-2.98.87-5.53,2.5-7.88,4.5-2.05,1.74-3.78,3.74-5.24,6s-1.82,3.59-2.56,6.19c-.86,3.04-1.67,6.05-1.44,9.24s1.17,6.01,3.02,8.56c1.28,1.55,2.83,2.72,4.64,3.52,1.71,1.07,3.58,1.77,5.61,2.07,3.45.45,6.92.11,10.26-.8,7.59-2.05,12.79-8.28,16.63-14.82,1.62-2.76,3.16-5.56,4.46-8.49,1.14-2.57,2.37-5.8,2.18-8.68-.39-6.03-4.82-10.83-9.86-13.75-3.03-1.76-8-2.74-11.4-2.71-4.32.04-8.56.91-12.77,1.8-.11.02,1.4,1.44,1.58,1.57.52.42,1.05.83,1.59,1.22.36.31.75.56,1.19.74,4.54-.14,9.32-.75,13.74.59,3.89,1.18,7.44,3.87,9.45,7.4.89,1.56,1.5,3.19,1.52,5,.01,1.58-.42,3.02-.89,4.53-.71,2.32-1.7,4.26-2.91,6.37-1.79,3.11-3.65,6.79-6.13,9.4l-3.32,3.05-5.89,3.16c-2.04.61-4.41.85-6.53.71-4.09-.26-8.3-2.13-10.55-5.7-1.09-1.73-1.55-3.82-1.84-5.81-.82-7.66,1.31-12.9,6.37-15.72.7-.3,1.24-.78,1.62-1.45,1.03-1.24,2.17-2.19,3.7-2.73,2.95-1.04,4.51-.09,4.34,4.3.27,0,.48-.13.66-.36.65-.62,1.28-1.25,1.89-1.91.44-.46,2.15-1.84,2.12-2.66Z"/>
    <path class="d" d="m338.14,34.45c1.26-3.12.66-4.58-1.8-4.4-1.67-.41-3.35-.36-5.04.16-2.24.69-4.24,1.89-6.14,3.24-2.51,1.79-4.74,4.23-6.28,6.91-1.42,2.45-2.29,5.09-3.08,7.8-.88,3-1.39,5.8-.97,8.9.21,1.85.84,3.53,1.89,5.03.47,1.21,1.25,2.15,2.34,2.84,2.46,2.14,5.35,3.39,8.54,4.03,1.98.28,3.95.26,5.91-.06,1.96-.12,3.86-.54,5.71-1.24,3.32-1.41,6.11-3.58,8.66-6.11,2.78-2.76,4.85-6.06,6.81-9.44,2.6-4.48,5.51-9.52,5.62-14.83.07-3.21-1.77-6.58-3.9-8.87s-4.4-4.11-7.22-5.26-6.3-2.04-9.48-2.03c-4.24.01-8.41.85-12.54,1.69-.15.03,2.6,2.53,2.54,2.48.6.5,1.98,2.02,2.91,2.03,4.89.04,9.9-.62,14.47,1.59,3.74,1.82,6.83,5.65,7.23,9.84.19,2.02-1.02,4.76-1.86,6.5-.76,1.59-1.63,3.19-2.6,4.66-1.1,1.22-2.13,2.49-3.09,3.82-1.13,1.6-2.4,3.08-3.79,4.46-2.72,2.28-5.69,3.54-9.25,4.12-2.2.36-4.03,0-6.16-.71-1.94-.65-3.42-1.33-4.62-3.09s-2.11-3.75-2.16-5.97c-.05-2.47.62-4.62,1.58-6.88.64-1.52,1.3-3.69,2.52-4.86l.89-.7c.92-.15,1.47-.66,1.67-1.54.67-1.31,1.76-2.89,3.35-3.19l1.4.06c1.63.89,1.89,2.39.78,4.5.29-.03.52-.17.71-.42.72-.69,1.41-1.39,2.09-2.12.46-.49,2.4-2.05,2.38-2.93Z"/>
    <path class="d" d="m338.86,31.81c1.26-3.75.03-5.37-3.7-4.86l-3.67.36c-3.39.64-7,3.4-9.4,5.73-2.1,2.04-4.32,4.75-5.58,7.43-.59,1.25-.89,2.63-1.25,3.98-1.18,4.43-1.93,8.38-.65,12.91.38,1.89,1.19,3.6,2.43,5.12,1.38,1.61,3.03,2.85,4.94,3.69,1.81,1.13,3.78,1.87,5.91,2.22,2.14.28,4.25.23,6.35-.17,3.45-.46,6.63-1.49,9.63-3.25,4.21-2.47,7.27-6.76,9.85-10.79,2.07-3.22,4.04-6.92,5.49-10.49.79-1.94,1.61-3.95,1.95-6.02.52-3.15.03-6.45-1.72-9.16-1.98-3.08-4.83-6.01-8.15-7.61-2.93-1.42-6-2.14-9.22-2.46-5.17-.5-10.15.56-15.19,1.64-.13.03,1.34,1.36,1.5,1.49.58.45,1.87,1.86,2.65,1.82,5.13-.26,10.43-.95,15.38.79,3.6,1.27,6.82,3.69,8.88,6.91,1.2,1.88,2.05,3.92,1.93,6.19-.08,1.61-.61,3.36-1.08,4.89l-3.69,8.02-2.14,3.7c-.81,1.18-1.62,2.36-2.43,3.54-1.59,2.22-3.6,3.92-6.05,5.1-1.39,1.29-2.99,2.09-4.81,2.39-1.15.4-2.33.62-3.55.65-1.2.23-2.4.25-3.6.08-1.25.12-2.41-.15-3.49-.78-2.56-1.02-5.94-2.84-7.38-5.29l-1.34-3.02c-.03-3.27-.07-6.53-.1-9.8l.98-3.4,2.53-4.86c1.13-1.23,2.61-1.94,3.91-2.94.73-1.07,1.65-1.92,2.74-2.57.6-.56,1.3-.91,2.11-1.06,3.03-.98,4.91-.22,4.68,4.41.25,0,.46-.1.62-.32.6-.57,1.19-1.16,1.75-1.76.43-.46,1.97-1.68,1.95-2.48Z"/>
    <path class="d" d="m338.09,36.16c1.33-3.23.75-4.69-1.75-4.39-1.67-.32-3.32-.18-4.95.41-2.16.76-4.11,1.98-5.97,3.3-4.8,3.42-7.03,8.66-8.65,14.15-.84,2.84-1.3,5.53-.95,8.48.17,1.83.76,3.5,1.76,5,.42,1.21,1.18,2.15,2.28,2.81,2.44,2.09,5.33,3.35,8.48,3.94,1.94.23,3.87.15,5.77-.23,1.9-.18,3.75-.64,5.53-1.37,6.84-3.01,11.04-8.97,14.76-15.18,2.62-4.38,5.39-9.22,5.57-14.45.2-5.93-5.75-11.42-10.8-13.49-2.8-1.15-6.07-2.03-9.1-2.06-4.14-.04-8.25.75-12.3,1.51-.14.03,2.75,2.96,2.69,2.9.58.54,2.1,2.43,3.09,2.48,4.26.19,9.23-.5,13.05,1.82,3.09,1.88,5.96,5.07,5.73,8.93-.11,1.76-1,3.31-1.78,4.84-.87,1.71-1.99,3.65-3.3,5.05l-2.06,1.93c-1.03,1.34-2.19,2.56-3.46,3.66-.7.77-1.5,1.41-2.4,1.91-1.36,1.09-2.97,1.61-4.82,1.54-1.19.37-2.14.68-3.41.55-.85-.39-1.73-.63-2.65-.71-.93-.02-1.74-.37-2.43-1.04-2.27-2.43-2.84-5.97-1.78-9.04.31-1.03.75-2.01,1.33-2.93l1.2-1.94c-.16-.27-.17-.53-.02-.78.03-.21.14-.35.34-.43.74-.5,1.06-1.3.96-2.39l2.4-2.7c2.74-.81,1.72,2.47,1.63,4.25.32-.06.59-.22.79-.5.82-.8,1.63-1.62,2.41-2.46.5-.52,2.8-2.39,2.78-3.36Z"/>
    <path class="d" d="m339.41,30.72l-.09-3.97v-.2c-2.44-.86-4.92-1.01-7.44-.46l-3.58,1.3c-3.23,1.44-6.35,4.5-8.61,7.13-.76.88-3.43,4.25-3.91,5.45-.93,2.29-1.56,5.66-1.84,8-.31,2.54-.57,5.02.04,7.56l1.11,3.62c.68,2.05,1.91,3.63,3.68,4.73,3.48,2.78,7.5,4.29,11.96,4.31s8.64-.84,12.56-2.95c6.38-3.43,10.41-9.8,13.68-16.04,2.06-3.91,4.15-8.03,4.95-12.43,1.28-7.04-3.94-14.04-10.07-17.02-2.97-1.45-6.08-2.2-9.36-2.53-5.2-.51-10.2.52-15.26,1.62-.62.13.6.94.65.98.51.4,1.97,1.85,2.7,1.78,4.98-.48,10.21-1.09,15.11.29,4.37,1.23,8.28,4.02,10.78,7.8.66.8,1.13,1.7,1.41,2.7.66,1.14.84,2.37.53,3.7.17,1.62-.06,3.18-.71,4.68-.26,1.25-.64,2.45-1.16,3.61-.91,2.28-2.03,4.47-3.15,6.65-1.59,3.13-3.44,6.27-5.92,8.78-1.95,1.98-4,3.72-6.57,4.82-2.4,1.03-5.27,1.64-7.87,1.86s-5.29-.07-7.83-1.06l-3.51-1.76-3.03-2.4-1.67-3.19-.95-3.4c-3.2-13.73,2.92-15.94,9.82-22.04,1.32-1.16,2.7-2,4.42-2.41,3-.72,5.48-.15,5.21,4.47-.04.67,1.58-1.06,1.72-1.21.57-.59,2.25-1.85,2.23-2.77Z"/>
    <path class="d" d="m339.55,32.07c1.22-3.77-.04-5.37-3.79-4.79l-3.68.4c-3.38.67-6.82,3.35-9.24,5.66-1.57,1.5-3.1,3.25-4.34,5.05-1.47,2.14-1.93,3.48-2.63,6.19-1.16,4.47-1.9,8.51-.6,13.05.38,1.88,1.2,3.58,2.44,5.09,1.36,1.59,2.99,2.8,4.88,3.62,1.8,1.11,3.75,1.82,5.87,2.15,2.1.29,4.19.24,6.26-.14,3.35-.44,6.4-1.42,9.33-3.09,2.79-1.59,5.41-4.43,7.49-6.91,2.77-3.31,5.1-7.84,6.99-11.72,1.3-2.67,2.71-5.71,3.21-8.66.53-3.14.05-6.45-1.69-9.17-1.96-3.06-4.77-5.97-8.06-7.57-2.91-1.42-5.98-2.15-9.19-2.48-5.16-.54-10.13.51-15.16,1.57-.14.03,1.27,1.3,1.42,1.41.56.43,1.77,1.74,2.53,1.71,5.19-.22,10.56-.8,15.49,1.17,3.49,1.39,6.59,3.85,8.49,7.11,1.1,1.89,1.85,3.95,1.67,6.17-.13,1.57-.67,3.3-1.16,4.78-.9,2.74-2.34,5.28-3.74,7.78-1.74,3.11-3.55,6.09-6.05,8.66-1.24,1.53-2.78,2.69-4.61,3.48-1.36,1.24-2.92,2.01-4.69,2.32-2.27.61-4.48.84-6.82.67-2.81-.2-5.83-1.34-8.01-3.18l-2.52-2.48-1.39-2.95-.26-9.71.9-3.44,2.59-4.94,4.21-3.02c.7-1.03,1.58-1.86,2.64-2.46.59-.54,1.27-.87,2.05-.98,3.07-.91,4.75.12,4.57,4.56.26,0,.48-.13.65-.35.64-.61,1.26-1.24,1.87-1.89.44-.46,2.13-1.81,2.09-2.64Z"/>
    <path class="d" d="m338.39,33.44c1.23-3.1.6-4.58-1.88-4.41-1.73-.45-3.47-.42-5.23.11-2.33.69-4.43,1.9-6.4,3.29-2.54,1.79-4.84,4.35-6.37,7.07-1.4,2.5-2.25,5.18-3.02,7.93-.85,3.03-1.34,5.89-.91,9.02.21,1.87.85,3.55,1.91,5.06.48,1.21,1.27,2.18,2.37,2.88,2.48,2.2,5.39,3.49,8.62,4.16,2.03.31,4.04.3,6.05-.01,2.01-.11,3.96-.52,5.86-1.24,3.42-1.43,6.25-3.67,8.86-6.28,2.82-2.83,4.9-6.18,6.87-9.64,2.6-4.55,5.45-9.64,5.54-15.01.05-3.24-1.81-6.7-3.97-9s-4.51-4.15-7.39-5.31-6.39-2.04-9.62-2.02c-4.29.03-8.49.89-12.67,1.76-.17.04,2.42,2.31,2.35,2.26.58.47,1.83,1.82,2.71,1.8,4.92-.07,10.63-.95,15.21,1.45,3.58,1.88,6.6,4.78,7.69,8.75.98,3.57-.66,7.37-2.29,10.55l-3.1,4.89c-1.06,1.75-2.25,3.41-3.57,4.96-2.54,3.14-6.09,5.9-10.15,6.76s-8.75.51-12.2-2.07c-3.53-2.64-4.71-7.17-4.25-11.42.32-2.94,1.99-5.99,3.53-8.43.33-1.33,1.05-2.25,2.16-2.76.97-.44,1.64-1.2,2.01-2.3.98-1,2.15-1.9,3.53-2.24.91-.25,1.71-.11,2.39.44,1.52.63,1.69,2,.5,4.1.27-.02.5-.14.67-.38.67-.64,1.32-1.3,1.96-1.98.44-.47,2.24-1.91,2.21-2.76Z"/>
  </g>
</svg>